<mxfile host="app.diagrams.net" agent="Mozilla/5.0 (Windows NT 10.0; Win64; x64) AppleWebKit/537.36 (KHTML, like Gecko) Chrome/135.0.0.0 Safari/537.36" version="26.2.14" pages="3">
  <diagram name="UseCase" id="e7e014a7-5840-1c2e-5031-d8a46d1fe8dd">
    <mxGraphModel dx="1092" dy="672" grid="1" gridSize="10" guides="1" tooltips="1" connect="1" arrows="1" fold="1" page="1" pageScale="1" pageWidth="1169" pageHeight="826" background="none" math="0" shadow="0">
      <root>
        <mxCell id="0" />
        <mxCell id="1" parent="0" />
        <mxCell id="fHI8p0kZ0ybq7bgokpPR-16" style="rounded=0;orthogonalLoop=1;jettySize=auto;html=1;exitX=1;exitY=0.3333333333333333;exitDx=0;exitDy=0;exitPerimeter=0;entryX=0;entryY=0.5;entryDx=0;entryDy=0;" edge="1" parent="1" source="why8R35kb7o78LeSobUz-41" target="fHI8p0kZ0ybq7bgokpPR-3">
          <mxGeometry relative="1" as="geometry" />
        </mxCell>
        <mxCell id="fHI8p0kZ0ybq7bgokpPR-18" style="rounded=0;orthogonalLoop=1;jettySize=auto;html=1;exitX=1;exitY=0.3333333333333333;exitDx=0;exitDy=0;exitPerimeter=0;entryX=0;entryY=0.5;entryDx=0;entryDy=0;" edge="1" parent="1" source="why8R35kb7o78LeSobUz-41" target="fHI8p0kZ0ybq7bgokpPR-4">
          <mxGeometry relative="1" as="geometry" />
        </mxCell>
        <mxCell id="fHI8p0kZ0ybq7bgokpPR-19" style="rounded=0;orthogonalLoop=1;jettySize=auto;html=1;exitX=1;exitY=0.3333333333333333;exitDx=0;exitDy=0;exitPerimeter=0;entryX=0;entryY=0.5;entryDx=0;entryDy=0;" edge="1" parent="1" source="why8R35kb7o78LeSobUz-41" target="fHI8p0kZ0ybq7bgokpPR-5">
          <mxGeometry relative="1" as="geometry" />
        </mxCell>
        <mxCell id="fHI8p0kZ0ybq7bgokpPR-20" style="rounded=0;orthogonalLoop=1;jettySize=auto;html=1;exitX=1;exitY=0.3333333333333333;exitDx=0;exitDy=0;exitPerimeter=0;entryX=0;entryY=0.5;entryDx=0;entryDy=0;" edge="1" parent="1" source="why8R35kb7o78LeSobUz-41" target="fHI8p0kZ0ybq7bgokpPR-9">
          <mxGeometry relative="1" as="geometry" />
        </mxCell>
        <mxCell id="why8R35kb7o78LeSobUz-41" value="Admin" style="shape=umlActor;verticalLabelPosition=bottom;verticalAlign=top;html=1;outlineConnect=0;" vertex="1" parent="1">
          <mxGeometry x="240" y="330" width="30" height="60" as="geometry" />
        </mxCell>
        <mxCell id="fHI8p0kZ0ybq7bgokpPR-11" style="rounded=0;orthogonalLoop=1;jettySize=auto;html=1;exitX=0;exitY=0.3333333333333333;exitDx=0;exitDy=0;exitPerimeter=0;entryX=1;entryY=0.5;entryDx=0;entryDy=0;" edge="1" parent="1" source="fHI8p0kZ0ybq7bgokpPR-1" target="fHI8p0kZ0ybq7bgokpPR-2">
          <mxGeometry relative="1" as="geometry" />
        </mxCell>
        <mxCell id="fHI8p0kZ0ybq7bgokpPR-12" style="rounded=0;orthogonalLoop=1;jettySize=auto;html=1;exitX=0;exitY=0.3333333333333333;exitDx=0;exitDy=0;exitPerimeter=0;entryX=1;entryY=0.5;entryDx=0;entryDy=0;" edge="1" parent="1" source="fHI8p0kZ0ybq7bgokpPR-1" target="fHI8p0kZ0ybq7bgokpPR-3">
          <mxGeometry relative="1" as="geometry" />
        </mxCell>
        <mxCell id="fHI8p0kZ0ybq7bgokpPR-13" style="rounded=0;orthogonalLoop=1;jettySize=auto;html=1;exitX=0;exitY=0.3333333333333333;exitDx=0;exitDy=0;exitPerimeter=0;entryX=1;entryY=0.5;entryDx=0;entryDy=0;" edge="1" parent="1" source="fHI8p0kZ0ybq7bgokpPR-1" target="fHI8p0kZ0ybq7bgokpPR-6">
          <mxGeometry relative="1" as="geometry" />
        </mxCell>
        <mxCell id="fHI8p0kZ0ybq7bgokpPR-14" style="rounded=0;orthogonalLoop=1;jettySize=auto;html=1;exitX=0;exitY=0.3333333333333333;exitDx=0;exitDy=0;exitPerimeter=0;entryX=1;entryY=0.5;entryDx=0;entryDy=0;" edge="1" parent="1" source="fHI8p0kZ0ybq7bgokpPR-1" target="fHI8p0kZ0ybq7bgokpPR-7">
          <mxGeometry relative="1" as="geometry" />
        </mxCell>
        <mxCell id="fHI8p0kZ0ybq7bgokpPR-1" value="Volunteer" style="shape=umlActor;verticalLabelPosition=bottom;verticalAlign=top;html=1;outlineConnect=0;" vertex="1" parent="1">
          <mxGeometry x="800" y="330" width="30" height="60" as="geometry" />
        </mxCell>
        <mxCell id="fHI8p0kZ0ybq7bgokpPR-2" value="Register Account" style="ellipse;whiteSpace=wrap;html=1;" vertex="1" parent="1">
          <mxGeometry x="540" y="70" width="120" height="80" as="geometry" />
        </mxCell>
        <mxCell id="fHI8p0kZ0ybq7bgokpPR-3" value="Login" style="ellipse;whiteSpace=wrap;html=1;" vertex="1" parent="1">
          <mxGeometry x="440" y="170" width="120" height="80" as="geometry" />
        </mxCell>
        <mxCell id="fHI8p0kZ0ybq7bgokpPR-4" value="Manajemen Aset" style="ellipse;whiteSpace=wrap;html=1;" vertex="1" parent="1">
          <mxGeometry x="344" y="280" width="120" height="80" as="geometry" />
        </mxCell>
        <mxCell id="_O2ewM6B6wKDZpP8Bw50-2" style="rounded=0;orthogonalLoop=1;jettySize=auto;html=1;exitX=0.5;exitY=1;exitDx=0;exitDy=0;entryX=0.5;entryY=0;entryDx=0;entryDy=0;dashed=1;dashPattern=8 8;" edge="1" parent="1" source="fHI8p0kZ0ybq7bgokpPR-5" target="_O2ewM6B6wKDZpP8Bw50-1">
          <mxGeometry relative="1" as="geometry" />
        </mxCell>
        <mxCell id="fHI8p0kZ0ybq7bgokpPR-5" value="Manajemen Event" style="ellipse;whiteSpace=wrap;html=1;" vertex="1" parent="1">
          <mxGeometry x="344" y="500" width="120" height="80" as="geometry" />
        </mxCell>
        <mxCell id="fHI8p0kZ0ybq7bgokpPR-6" value="Register Event" style="ellipse;whiteSpace=wrap;html=1;" vertex="1" parent="1">
          <mxGeometry x="540" y="280" width="120" height="80" as="geometry" />
        </mxCell>
        <mxCell id="fHI8p0kZ0ybq7bgokpPR-7" value="Absensi Kehadiran" style="ellipse;whiteSpace=wrap;html=1;" vertex="1" parent="1">
          <mxGeometry x="540" y="390" width="120" height="80" as="geometry" />
        </mxCell>
        <mxCell id="fHI8p0kZ0ybq7bgokpPR-21" style="rounded=0;orthogonalLoop=1;jettySize=auto;html=1;exitX=1;exitY=0.5;exitDx=0;exitDy=0;entryX=0;entryY=0.5;entryDx=0;entryDy=0;dashed=1;dashPattern=8 8;" edge="1" parent="1" source="fHI8p0kZ0ybq7bgokpPR-9" target="fHI8p0kZ0ybq7bgokpPR-7">
          <mxGeometry relative="1" as="geometry" />
        </mxCell>
        <mxCell id="fHI8p0kZ0ybq7bgokpPR-22" style="rounded=0;orthogonalLoop=1;jettySize=auto;html=1;exitX=1;exitY=0.5;exitDx=0;exitDy=0;entryX=0;entryY=0.5;entryDx=0;entryDy=0;dashed=1;dashPattern=8 8;" edge="1" parent="1" source="fHI8p0kZ0ybq7bgokpPR-9" target="fHI8p0kZ0ybq7bgokpPR-10">
          <mxGeometry relative="1" as="geometry" />
        </mxCell>
        <mxCell id="fHI8p0kZ0ybq7bgokpPR-9" value="Manajemen Volunteer" style="ellipse;whiteSpace=wrap;html=1;" vertex="1" parent="1">
          <mxGeometry x="344" y="390" width="120" height="80" as="geometry" />
        </mxCell>
        <mxCell id="fHI8p0kZ0ybq7bgokpPR-10" value="Manajemen Akun" style="ellipse;whiteSpace=wrap;html=1;" vertex="1" parent="1">
          <mxGeometry x="540" y="500" width="120" height="80" as="geometry" />
        </mxCell>
        <mxCell id="fHI8p0kZ0ybq7bgokpPR-15" style="rounded=0;orthogonalLoop=1;jettySize=auto;html=1;exitX=0;exitY=0.3333333333333333;exitDx=0;exitDy=0;exitPerimeter=0;entryX=1.019;entryY=0.403;entryDx=0;entryDy=0;entryPerimeter=0;" edge="1" parent="1" source="fHI8p0kZ0ybq7bgokpPR-1" target="fHI8p0kZ0ybq7bgokpPR-10">
          <mxGeometry relative="1" as="geometry" />
        </mxCell>
        <mxCell id="_O2ewM6B6wKDZpP8Bw50-1" value="Manajemen Event Task" style="ellipse;whiteSpace=wrap;html=1;" vertex="1" parent="1">
          <mxGeometry x="440" y="600" width="120" height="80" as="geometry" />
        </mxCell>
      </root>
    </mxGraphModel>
  </diagram>
  <diagram id="Y6ZRcGM0dUHqpds2IcXK" name="Class Diagram">
    <mxGraphModel dx="1160" dy="714" grid="1" gridSize="10" guides="1" tooltips="1" connect="1" arrows="1" fold="1" page="1" pageScale="1" pageWidth="1169" pageHeight="827" math="0" shadow="0">
      <root>
        <mxCell id="0" />
        <mxCell id="1" parent="0" />
        <mxCell id="wlJxxvB1YF9f8kTw5oI9-13" style="edgeStyle=orthogonalEdgeStyle;rounded=0;orthogonalLoop=1;jettySize=auto;html=1;exitX=0.5;exitY=0;exitDx=0;exitDy=0;entryX=0.75;entryY=0;entryDx=0;entryDy=0;dashed=1;dashPattern=8 8;" edge="1" parent="1" source="1HvZgmMVTu0jgC2kyj0m-11" target="1HvZgmMVTu0jgC2kyj0m-18">
          <mxGeometry relative="1" as="geometry" />
        </mxCell>
        <mxCell id="wlJxxvB1YF9f8kTw5oI9-28" style="edgeStyle=orthogonalEdgeStyle;rounded=0;orthogonalLoop=1;jettySize=auto;html=1;exitX=0.75;exitY=1;exitDx=0;exitDy=0;entryX=0.75;entryY=0;entryDx=0;entryDy=0;dashed=1;dashPattern=8 8;" edge="1" parent="1" source="1HvZgmMVTu0jgC2kyj0m-11" target="1HvZgmMVTu0jgC2kyj0m-16">
          <mxGeometry relative="1" as="geometry">
            <Array as="points">
              <mxPoint x="730" y="390" />
              <mxPoint x="870" y="390" />
            </Array>
          </mxGeometry>
        </mxCell>
        <mxCell id="wlJxxvB1YF9f8kTw5oI9-29" style="edgeStyle=orthogonalEdgeStyle;rounded=0;orthogonalLoop=1;jettySize=auto;html=1;exitX=0.75;exitY=0;exitDx=0;exitDy=0;entryX=0.5;entryY=0;entryDx=0;entryDy=0;dashed=1;dashPattern=8 8;" edge="1" parent="1" source="1HvZgmMVTu0jgC2kyj0m-11" target="wlJxxvB1YF9f8kTw5oI9-1">
          <mxGeometry relative="1" as="geometry" />
        </mxCell>
        <mxCell id="1HvZgmMVTu0jgC2kyj0m-11" value="&lt;p style=&quot;margin:0px;margin-top:4px;text-align:center;&quot;&gt;&lt;b&gt;Event&lt;/b&gt;&lt;/p&gt;&lt;hr size=&quot;1&quot; style=&quot;border-style:solid;&quot;&gt;&lt;p style=&quot;margin:0px;margin-left:4px;&quot;&gt;+ event_id: uuid&lt;/p&gt;&lt;p style=&quot;margin:0px;margin-left:4px;&quot;&gt;+ event_name: string&lt;/p&gt;&lt;p style=&quot;margin:0px;margin-left:4px;&quot;&gt;+ description: string&lt;/p&gt;&lt;p style=&quot;margin:0px;margin-left:4px;&quot;&gt;+ location: string&lt;/p&gt;&lt;p style=&quot;margin:0px;margin-left:4px;&quot;&gt;+ start_date: date&lt;/p&gt;&lt;p style=&quot;margin:0px;margin-left:4px;&quot;&gt;+ end_date: date&lt;/p&gt;&lt;hr size=&quot;1&quot; style=&quot;border-style:solid;&quot;&gt;&lt;p style=&quot;margin:0px;margin-left:4px;&quot;&gt;+ create()&lt;/p&gt;&lt;p style=&quot;margin:0px;margin-left:4px;&quot;&gt;+ read()&lt;/p&gt;&lt;p style=&quot;margin:0px;margin-left:4px;&quot;&gt;+ update()&lt;/p&gt;&lt;p style=&quot;margin:0px;margin-left:4px;&quot;&gt;+ registerEvent()&lt;/p&gt;" style="verticalAlign=top;align=left;overflow=fill;html=1;whiteSpace=wrap;" vertex="1" parent="1">
          <mxGeometry x="610" y="170" width="160" height="190" as="geometry" />
        </mxCell>
        <mxCell id="wlJxxvB1YF9f8kTw5oI9-27" style="edgeStyle=orthogonalEdgeStyle;rounded=0;orthogonalLoop=1;jettySize=auto;html=1;exitX=0.75;exitY=1;exitDx=0;exitDy=0;entryX=0.5;entryY=1;entryDx=0;entryDy=0;" edge="1" parent="1" source="1HvZgmMVTu0jgC2kyj0m-12" target="1HvZgmMVTu0jgC2kyj0m-16">
          <mxGeometry relative="1" as="geometry">
            <Array as="points">
              <mxPoint x="210" y="590" />
              <mxPoint x="830" y="590" />
            </Array>
          </mxGeometry>
        </mxCell>
        <mxCell id="o_QzRcYbKwv_d6e1LgBF-1" style="edgeStyle=orthogonalEdgeStyle;rounded=0;orthogonalLoop=1;jettySize=auto;html=1;exitX=1;exitY=0.25;exitDx=0;exitDy=0;entryX=-0.003;entryY=0.956;entryDx=0;entryDy=0;entryPerimeter=0;" edge="1" parent="1" source="1HvZgmMVTu0jgC2kyj0m-12" target="1HvZgmMVTu0jgC2kyj0m-11">
          <mxGeometry relative="1" as="geometry">
            <Array as="points">
              <mxPoint x="550" y="425" />
              <mxPoint x="550" y="352" />
            </Array>
          </mxGeometry>
        </mxCell>
        <mxCell id="1HvZgmMVTu0jgC2kyj0m-12" value="&lt;p style=&quot;margin:0px;margin-top:4px;text-align:center;&quot;&gt;&lt;b&gt;Volunteer&lt;/b&gt;&lt;/p&gt;&lt;hr size=&quot;1&quot; style=&quot;border-style:solid;&quot;&gt;&lt;p style=&quot;margin:0px;margin-left:4px;&quot;&gt;+ volunteer_id: uuid&lt;/p&gt;&lt;p style=&quot;margin:0px;margin-left:4px;&quot;&gt;+ username: string&lt;/p&gt;&lt;p style=&quot;margin:0px;margin-left:4px;&quot;&gt;+ email: string&lt;/p&gt;&lt;p style=&quot;margin:0px;margin-left:4px;&quot;&gt;+ password: string&lt;/p&gt;&lt;p style=&quot;margin:0px;margin-left:4px;&quot;&gt;+ phone: string&lt;/p&gt;&lt;hr size=&quot;1&quot; style=&quot;border-style:solid;&quot;&gt;&lt;p style=&quot;margin: 0px 0px 0px 4px;&quot;&gt;+ register()&lt;/p&gt;&lt;p style=&quot;margin: 0px 0px 0px 4px;&quot;&gt;+ login()&lt;/p&gt;&lt;p style=&quot;margin: 0px 0px 0px 4px;&quot;&gt;+ read()&lt;/p&gt;&lt;p style=&quot;margin: 0px 0px 0px 4px;&quot;&gt;+ update()&lt;/p&gt;&lt;div&gt;&lt;br&gt;&lt;/div&gt;" style="verticalAlign=top;align=left;overflow=fill;html=1;whiteSpace=wrap;" vertex="1" parent="1">
          <mxGeometry x="90" y="380" width="160" height="180" as="geometry" />
        </mxCell>
        <mxCell id="wlJxxvB1YF9f8kTw5oI9-14" style="edgeStyle=orthogonalEdgeStyle;rounded=0;orthogonalLoop=1;jettySize=auto;html=1;exitX=0.5;exitY=0;exitDx=0;exitDy=0;entryX=0.25;entryY=0;entryDx=0;entryDy=0;dashed=1;dashPattern=8 8;" edge="1" parent="1" source="1HvZgmMVTu0jgC2kyj0m-13" target="1HvZgmMVTu0jgC2kyj0m-18">
          <mxGeometry relative="1" as="geometry" />
        </mxCell>
        <mxCell id="1HvZgmMVTu0jgC2kyj0m-13" value="&lt;p style=&quot;margin:0px;margin-top:4px;text-align:center;&quot;&gt;&lt;b&gt;Aset&lt;/b&gt;&lt;/p&gt;&lt;hr size=&quot;1&quot; style=&quot;border-style:solid;&quot;&gt;&lt;p style=&quot;margin:0px;margin-left:4px;&quot;&gt;+ aset_id: uuid&lt;/p&gt;&lt;p style=&quot;margin:0px;margin-left:4px;&quot;&gt;+ name: string&lt;/p&gt;&lt;p style=&quot;margin:0px;margin-left:4px;&quot;&gt;+ description: string&lt;/p&gt;&lt;p style=&quot;margin:0px;margin-left:4px;&quot;&gt;+ quantity: int&lt;/p&gt;&lt;p style=&quot;margin:0px;margin-left:4px;&quot;&gt;+ serial_number: string&lt;/p&gt;&lt;hr size=&quot;1&quot; style=&quot;border-style:solid;&quot;&gt;&lt;p style=&quot;margin:0px;margin-left:4px;&quot;&gt;+ create()&lt;/p&gt;&lt;p style=&quot;margin:0px;margin-left:4px;&quot;&gt;+ read()&lt;/p&gt;&lt;p style=&quot;margin:0px;margin-left:4px;&quot;&gt;+ update()&lt;/p&gt;&lt;p style=&quot;margin:0px;margin-left:4px;&quot;&gt;+ delete()&lt;/p&gt;" style="verticalAlign=top;align=left;overflow=fill;html=1;whiteSpace=wrap;" vertex="1" parent="1">
          <mxGeometry x="90" y="170" width="160" height="180" as="geometry" />
        </mxCell>
        <mxCell id="iktih2tjgf18wQBwykIP-1" style="edgeStyle=orthogonalEdgeStyle;rounded=0;orthogonalLoop=1;jettySize=auto;html=1;exitX=0.25;exitY=0;exitDx=0;exitDy=0;entryX=1;entryY=0.75;entryDx=0;entryDy=0;" edge="1" parent="1" source="1HvZgmMVTu0jgC2kyj0m-14" target="1HvZgmMVTu0jgC2kyj0m-13">
          <mxGeometry relative="1" as="geometry">
            <Array as="points">
              <mxPoint x="500" y="390" />
              <mxPoint x="340" y="390" />
              <mxPoint x="340" y="305" />
            </Array>
          </mxGeometry>
        </mxCell>
        <mxCell id="iktih2tjgf18wQBwykIP-3" style="edgeStyle=orthogonalEdgeStyle;rounded=0;orthogonalLoop=1;jettySize=auto;html=1;exitX=0;exitY=0.25;exitDx=0;exitDy=0;entryX=1;entryY=0.5;entryDx=0;entryDy=0;" edge="1" parent="1" source="1HvZgmMVTu0jgC2kyj0m-14" target="1HvZgmMVTu0jgC2kyj0m-12">
          <mxGeometry relative="1" as="geometry" />
        </mxCell>
        <mxCell id="o_QzRcYbKwv_d6e1LgBF-2" style="edgeStyle=orthogonalEdgeStyle;rounded=0;orthogonalLoop=1;jettySize=auto;html=1;exitX=1;exitY=0.25;exitDx=0;exitDy=0;entryX=0.5;entryY=1;entryDx=0;entryDy=0;" edge="1" parent="1" source="1HvZgmMVTu0jgC2kyj0m-14" target="1HvZgmMVTu0jgC2kyj0m-11">
          <mxGeometry relative="1" as="geometry" />
        </mxCell>
        <mxCell id="1HvZgmMVTu0jgC2kyj0m-14" value="&lt;p style=&quot;margin:0px;margin-top:4px;text-align:center;&quot;&gt;&lt;b&gt;Admin&lt;/b&gt;&lt;/p&gt;&lt;hr size=&quot;1&quot; style=&quot;border-style:solid;&quot;&gt;&lt;p style=&quot;margin:0px;margin-left:4px;&quot;&gt;+ username: string&lt;/p&gt;&lt;p style=&quot;margin:0px;margin-left:4px;&quot;&gt;+ password: string&lt;/p&gt;&lt;p style=&quot;margin:0px;margin-left:4px;&quot;&gt;+ emai;: string&lt;/p&gt;&lt;hr size=&quot;1&quot; style=&quot;border-style:solid;&quot;&gt;&lt;p style=&quot;margin:0px;margin-left:4px;&quot;&gt;+ read()&lt;/p&gt;&lt;p style=&quot;margin:0px;margin-left:4px;&quot;&gt;+ update()&lt;/p&gt;" style="verticalAlign=top;align=left;overflow=fill;html=1;whiteSpace=wrap;" vertex="1" parent="1">
          <mxGeometry x="460" y="440" width="160" height="120" as="geometry" />
        </mxCell>
        <mxCell id="1HvZgmMVTu0jgC2kyj0m-16" value="&lt;p style=&quot;margin:0px;margin-top:4px;text-align:center;&quot;&gt;&lt;b&gt;Event Attendance&lt;/b&gt;&lt;/p&gt;&lt;hr size=&quot;1&quot; style=&quot;border-style:solid;&quot;&gt;&lt;p style=&quot;margin:0px;margin-left:4px;&quot;&gt;+ event_id: uuid&lt;/p&gt;&lt;p style=&quot;margin:0px;margin-left:4px;&quot;&gt;+ volunteer_id: uuid&lt;/p&gt;&lt;p style=&quot;margin:0px;margin-left:4px;&quot;&gt;+ is_present: boolean&lt;/p&gt;&lt;p style=&quot;margin:0px;margin-left:4px;&quot;&gt;+ time_present: timestamp&lt;/p&gt;&lt;hr size=&quot;1&quot; style=&quot;border-style:solid;&quot;&gt;&lt;p style=&quot;margin:0px;margin-left:4px;&quot;&gt;&lt;span style=&quot;background-color: transparent; color: light-dark(rgb(0, 0, 0), rgb(255, 255, 255));&quot;&gt;+ present()&lt;/span&gt;&lt;/p&gt;" style="verticalAlign=top;align=left;overflow=fill;html=1;whiteSpace=wrap;" vertex="1" parent="1">
          <mxGeometry x="750" y="440" width="160" height="120" as="geometry" />
        </mxCell>
        <mxCell id="1HvZgmMVTu0jgC2kyj0m-18" value="&lt;p style=&quot;margin:0px;margin-top:4px;text-align:center;&quot;&gt;&lt;b&gt;Transaction Aset&lt;/b&gt;&lt;/p&gt;&lt;hr size=&quot;1&quot; style=&quot;border-style:solid;&quot;&gt;&lt;p style=&quot;margin:0px;margin-left:4px;&quot;&gt;+ aset_id: uuid&lt;/p&gt;&lt;p style=&quot;margin:0px;margin-left:4px;&quot;&gt;+ event_id: uuid&lt;/p&gt;&lt;p style=&quot;margin:0px;margin-left:4px;&quot;&gt;+ quantity: int&lt;/p&gt;&lt;p style=&quot;margin:0px;margin-left:4px;&quot;&gt;+ type: enum[&#39;out&#39;, &#39;in&#39;]&lt;/p&gt;&lt;p style=&quot;margin:0px;margin-left:4px;&quot;&gt;+ insert_date: date&lt;/p&gt;&lt;hr size=&quot;1&quot; style=&quot;border-style:solid;&quot;&gt;&lt;p style=&quot;margin:0px;margin-left:4px;&quot;&gt;+ create()&lt;/p&gt;&lt;p style=&quot;margin:0px;margin-left:4px;&quot;&gt;+ read()&lt;/p&gt;&lt;p style=&quot;margin:0px;margin-left:4px;&quot;&gt;+ update()&lt;/p&gt;" style="verticalAlign=top;align=left;overflow=fill;html=1;whiteSpace=wrap;" vertex="1" parent="1">
          <mxGeometry x="360" y="170" width="160" height="170" as="geometry" />
        </mxCell>
        <mxCell id="wlJxxvB1YF9f8kTw5oI9-1" value="&lt;p style=&quot;margin:0px;margin-top:4px;text-align:center;&quot;&gt;&lt;b&gt;Event Task&lt;/b&gt;&lt;/p&gt;&lt;hr size=&quot;1&quot; style=&quot;border-style:solid;&quot;&gt;&lt;p style=&quot;margin:0px;margin-left:4px;&quot;&gt;+ task_name: string&lt;/p&gt;&lt;p style=&quot;margin:0px;margin-left:4px;&quot;&gt;+ description: string&lt;/p&gt;&lt;p style=&quot;margin:0px;margin-left:4px;&quot;&gt;+ start_time: time&lt;/p&gt;&lt;p style=&quot;margin:0px;margin-left:4px;&quot;&gt;+ end_time: time&lt;/p&gt;&lt;hr size=&quot;1&quot; style=&quot;border-style:solid;&quot;&gt;&lt;p style=&quot;margin:0px;margin-left:4px;&quot;&gt;+ create()&lt;/p&gt;&lt;p style=&quot;margin:0px;margin-left:4px;&quot;&gt;+ read()&lt;/p&gt;&lt;p style=&quot;margin:0px;margin-left:4px;&quot;&gt;+ update()&lt;/p&gt;&lt;p style=&quot;margin:0px;margin-left:4px;&quot;&gt;+ delete()&lt;/p&gt;" style="verticalAlign=top;align=left;overflow=fill;html=1;whiteSpace=wrap;" vertex="1" parent="1">
          <mxGeometry x="870" y="170" width="160" height="170" as="geometry" />
        </mxCell>
      </root>
    </mxGraphModel>
  </diagram>
  <diagram id="TIvP5d7CFoB7_Q0FG59u" name="Page-3">
    <mxGraphModel dx="928" dy="571" grid="1" gridSize="10" guides="1" tooltips="1" connect="1" arrows="1" fold="1" page="1" pageScale="1" pageWidth="1169" pageHeight="827" math="0" shadow="0">
      <root>
        <mxCell id="0" />
        <mxCell id="1" parent="0" />
        <mxCell id="PSc_-ESnvnopH5Z4mhXu-1" value="Thread 1" style="swimlane;whiteSpace=wrap" vertex="1" parent="1">
          <mxGeometry x="164.5" y="128" width="280" height="570" as="geometry" />
        </mxCell>
        <mxCell id="PSc_-ESnvnopH5Z4mhXu-2" value="" style="ellipse;shape=startState;fillColor=#000000;strokeColor=#ff0000;" vertex="1" parent="PSc_-ESnvnopH5Z4mhXu-1">
          <mxGeometry x="100" y="40" width="30" height="30" as="geometry" />
        </mxCell>
        <mxCell id="PSc_-ESnvnopH5Z4mhXu-3" value="" style="edgeStyle=elbowEdgeStyle;elbow=horizontal;verticalAlign=bottom;endArrow=open;endSize=8;strokeColor=#FF0000;endFill=1;rounded=0" edge="1" parent="PSc_-ESnvnopH5Z4mhXu-1" source="PSc_-ESnvnopH5Z4mhXu-2" target="PSc_-ESnvnopH5Z4mhXu-4">
          <mxGeometry x="100" y="40" as="geometry">
            <mxPoint x="115" y="110" as="targetPoint" />
          </mxGeometry>
        </mxCell>
        <mxCell id="PSc_-ESnvnopH5Z4mhXu-4" value="idle" style="" vertex="1" parent="PSc_-ESnvnopH5Z4mhXu-1">
          <mxGeometry x="60" y="110" width="110" height="50" as="geometry" />
        </mxCell>
        <mxCell id="PSc_-ESnvnopH5Z4mhXu-5" value="user action" style="" vertex="1" parent="PSc_-ESnvnopH5Z4mhXu-1">
          <mxGeometry x="60" y="220" width="110" height="50" as="geometry" />
        </mxCell>
        <mxCell id="PSc_-ESnvnopH5Z4mhXu-6" value="" style="endArrow=open;strokeColor=#FF0000;endFill=1;rounded=0" edge="1" parent="PSc_-ESnvnopH5Z4mhXu-1" source="PSc_-ESnvnopH5Z4mhXu-4" target="PSc_-ESnvnopH5Z4mhXu-5">
          <mxGeometry relative="1" as="geometry" />
        </mxCell>
        <mxCell id="PSc_-ESnvnopH5Z4mhXu-7" value="post command" style="" vertex="1" parent="PSc_-ESnvnopH5Z4mhXu-1">
          <mxGeometry x="60" y="325" width="110" height="50" as="geometry" />
        </mxCell>
        <mxCell id="PSc_-ESnvnopH5Z4mhXu-8" value="" style="endArrow=open;strokeColor=#FF0000;endFill=1;rounded=0" edge="1" parent="PSc_-ESnvnopH5Z4mhXu-1" source="PSc_-ESnvnopH5Z4mhXu-5" target="PSc_-ESnvnopH5Z4mhXu-7">
          <mxGeometry relative="1" as="geometry" />
        </mxCell>
        <mxCell id="PSc_-ESnvnopH5Z4mhXu-9" value="" style="edgeStyle=elbowEdgeStyle;elbow=horizontal;strokeColor=#FF0000;endArrow=open;endFill=1;rounded=0" edge="1" parent="PSc_-ESnvnopH5Z4mhXu-1" source="PSc_-ESnvnopH5Z4mhXu-7" target="PSc_-ESnvnopH5Z4mhXu-4">
          <mxGeometry width="100" height="100" relative="1" as="geometry">
            <mxPoint x="160" y="290" as="sourcePoint" />
            <mxPoint x="260" y="190" as="targetPoint" />
            <Array as="points">
              <mxPoint x="30" y="250" />
            </Array>
          </mxGeometry>
        </mxCell>
        <mxCell id="PSc_-ESnvnopH5Z4mhXu-10" value="Thread 2" style="swimlane;whiteSpace=wrap" vertex="1" parent="1">
          <mxGeometry x="444.5" y="128" width="280" height="570" as="geometry" />
        </mxCell>
        <mxCell id="PSc_-ESnvnopH5Z4mhXu-11" value="" style="ellipse;shape=startState;fillColor=#000000;strokeColor=#ff0000;" vertex="1" parent="PSc_-ESnvnopH5Z4mhXu-10">
          <mxGeometry x="60" y="40" width="30" height="30" as="geometry" />
        </mxCell>
        <mxCell id="PSc_-ESnvnopH5Z4mhXu-12" value="" style="edgeStyle=elbowEdgeStyle;elbow=horizontal;verticalAlign=bottom;endArrow=open;endSize=8;strokeColor=#FF0000;endFill=1;rounded=0" edge="1" parent="PSc_-ESnvnopH5Z4mhXu-10" source="PSc_-ESnvnopH5Z4mhXu-11" target="PSc_-ESnvnopH5Z4mhXu-13">
          <mxGeometry x="40" y="20" as="geometry">
            <mxPoint x="55" y="90" as="targetPoint" />
          </mxGeometry>
        </mxCell>
        <mxCell id="PSc_-ESnvnopH5Z4mhXu-13" value="idle" style="" vertex="1" parent="PSc_-ESnvnopH5Z4mhXu-10">
          <mxGeometry x="20" y="110" width="110" height="50" as="geometry" />
        </mxCell>
        <mxCell id="PSc_-ESnvnopH5Z4mhXu-14" value="check for &#xa;new commands" style="" vertex="1" parent="PSc_-ESnvnopH5Z4mhXu-10">
          <mxGeometry x="20" y="220" width="110" height="50" as="geometry" />
        </mxCell>
        <mxCell id="PSc_-ESnvnopH5Z4mhXu-15" value="" style="endArrow=open;strokeColor=#FF0000;endFill=1;rounded=0" edge="1" parent="PSc_-ESnvnopH5Z4mhXu-10" source="PSc_-ESnvnopH5Z4mhXu-13" target="PSc_-ESnvnopH5Z4mhXu-14">
          <mxGeometry relative="1" as="geometry" />
        </mxCell>
        <mxCell id="PSc_-ESnvnopH5Z4mhXu-16" value="command queue" style="" vertex="1" parent="PSc_-ESnvnopH5Z4mhXu-10">
          <mxGeometry x="20" y="325" width="110" height="50" as="geometry" />
        </mxCell>
        <mxCell id="PSc_-ESnvnopH5Z4mhXu-17" value="" style="endArrow=open;strokeColor=#FF0000;endFill=1;rounded=0" edge="1" parent="PSc_-ESnvnopH5Z4mhXu-10" source="PSc_-ESnvnopH5Z4mhXu-14" target="PSc_-ESnvnopH5Z4mhXu-16">
          <mxGeometry relative="1" as="geometry" />
        </mxCell>
        <mxCell id="PSc_-ESnvnopH5Z4mhXu-18" value="queue empty" style="rhombus;fillColor=#ffffc0;strokeColor=#ff0000;" vertex="1" parent="PSc_-ESnvnopH5Z4mhXu-10">
          <mxGeometry x="150" y="225" width="80" height="40" as="geometry" />
        </mxCell>
        <mxCell id="PSc_-ESnvnopH5Z4mhXu-19" value="yes" style="edgeStyle=elbowEdgeStyle;elbow=horizontal;align=left;verticalAlign=bottom;endArrow=open;endSize=8;strokeColor=#FF0000;exitX=0.5;exitY=0;endFill=1;rounded=0;entryX=0.75;entryY=0.5;entryPerimeter=0" edge="1" parent="PSc_-ESnvnopH5Z4mhXu-10" source="PSc_-ESnvnopH5Z4mhXu-18" target="PSc_-ESnvnopH5Z4mhXu-22">
          <mxGeometry x="-1" relative="1" as="geometry">
            <mxPoint x="160" y="150" as="targetPoint" />
            <Array as="points">
              <mxPoint x="190" y="180" />
            </Array>
          </mxGeometry>
        </mxCell>
        <mxCell id="PSc_-ESnvnopH5Z4mhXu-20" value="no" style="edgeStyle=elbowEdgeStyle;elbow=horizontal;align=left;verticalAlign=top;endArrow=open;endSize=8;strokeColor=#FF0000;endFill=1;rounded=0" edge="1" parent="PSc_-ESnvnopH5Z4mhXu-10" source="PSc_-ESnvnopH5Z4mhXu-18" target="PSc_-ESnvnopH5Z4mhXu-24">
          <mxGeometry x="-1" relative="1" as="geometry">
            <mxPoint x="190" y="305" as="targetPoint" />
          </mxGeometry>
        </mxCell>
        <mxCell id="PSc_-ESnvnopH5Z4mhXu-21" value="" style="endArrow=open;strokeColor=#FF0000;endFill=1;rounded=0" edge="1" parent="PSc_-ESnvnopH5Z4mhXu-10" source="PSc_-ESnvnopH5Z4mhXu-14" target="PSc_-ESnvnopH5Z4mhXu-18">
          <mxGeometry relative="1" as="geometry" />
        </mxCell>
        <mxCell id="PSc_-ESnvnopH5Z4mhXu-22" value="" style="shape=line;strokeWidth=6;strokeColor=#ff0000;rotation=90" vertex="1" parent="PSc_-ESnvnopH5Z4mhXu-10">
          <mxGeometry x="130" y="127.5" width="50" height="15" as="geometry" />
        </mxCell>
        <mxCell id="PSc_-ESnvnopH5Z4mhXu-23" value="" style="edgeStyle=elbowEdgeStyle;elbow=horizontal;verticalAlign=bottom;endArrow=open;endSize=8;strokeColor=#FF0000;endFill=1;rounded=0" edge="1" parent="PSc_-ESnvnopH5Z4mhXu-10" source="PSc_-ESnvnopH5Z4mhXu-22" target="PSc_-ESnvnopH5Z4mhXu-13">
          <mxGeometry x="130" y="90" as="geometry">
            <mxPoint x="230" y="140" as="targetPoint" />
          </mxGeometry>
        </mxCell>
        <mxCell id="PSc_-ESnvnopH5Z4mhXu-24" value="dispatch&#xa;command&#xa;worker thread" style="" vertex="1" parent="PSc_-ESnvnopH5Z4mhXu-10">
          <mxGeometry x="140" y="325" width="110" height="50" as="geometry" />
        </mxCell>
        <mxCell id="PSc_-ESnvnopH5Z4mhXu-25" value="critical&#xa;section" style="shape=note;whiteSpace=wrap;size=17" vertex="1" parent="PSc_-ESnvnopH5Z4mhXu-10">
          <mxGeometry x="105" y="490" width="100" height="50" as="geometry" />
        </mxCell>
        <mxCell id="PSc_-ESnvnopH5Z4mhXu-26" value="" style="endArrow=none;strokeColor=#FF0000;endFill=0;rounded=0;dashed=1" edge="1" parent="PSc_-ESnvnopH5Z4mhXu-10" source="PSc_-ESnvnopH5Z4mhXu-16" target="PSc_-ESnvnopH5Z4mhXu-25">
          <mxGeometry relative="1" as="geometry" />
        </mxCell>
        <mxCell id="PSc_-ESnvnopH5Z4mhXu-27" value="" style="whiteSpace=wrap;strokeColor=#FF0000;fillColor=#FF0000" vertex="1" parent="PSc_-ESnvnopH5Z4mhXu-10">
          <mxGeometry x="245" y="395" width="5" height="45" as="geometry" />
        </mxCell>
        <mxCell id="PSc_-ESnvnopH5Z4mhXu-28" value="" style="edgeStyle=elbowEdgeStyle;elbow=horizontal;entryX=0;entryY=0.5;strokeColor=#FF0000;endArrow=open;endFill=1;rounded=0" edge="1" parent="PSc_-ESnvnopH5Z4mhXu-10" source="PSc_-ESnvnopH5Z4mhXu-24" target="PSc_-ESnvnopH5Z4mhXu-27">
          <mxGeometry width="100" height="100" relative="1" as="geometry">
            <mxPoint x="60" y="480" as="sourcePoint" />
            <mxPoint x="160" y="380" as="targetPoint" />
            <Array as="points">
              <mxPoint x="195" y="400" />
            </Array>
          </mxGeometry>
        </mxCell>
        <mxCell id="PSc_-ESnvnopH5Z4mhXu-29" value="Thread 3" style="swimlane;whiteSpace=wrap" vertex="1" parent="1">
          <mxGeometry x="724.5" y="128" width="280" height="570" as="geometry" />
        </mxCell>
        <mxCell id="PSc_-ESnvnopH5Z4mhXu-30" value="process&#xa;command" style="" vertex="1" parent="PSc_-ESnvnopH5Z4mhXu-29">
          <mxGeometry x="90" y="405" width="110" height="50" as="geometry" />
        </mxCell>
        <mxCell id="PSc_-ESnvnopH5Z4mhXu-31" value="" style="edgeStyle=elbowEdgeStyle;elbow=horizontal;strokeColor=#FF0000;endArrow=open;endFill=1;rounded=0;entryX=0.25;entryY=0.5;entryPerimeter=0" edge="1" parent="PSc_-ESnvnopH5Z4mhXu-29" target="PSc_-ESnvnopH5Z4mhXu-22">
          <mxGeometry width="100" height="100" relative="1" as="geometry">
            <mxPoint x="-30" y="410" as="sourcePoint" />
            <mxPoint x="-120" y="120" as="targetPoint" />
            <Array as="points">
              <mxPoint x="-10" y="135" />
            </Array>
          </mxGeometry>
        </mxCell>
        <mxCell id="PSc_-ESnvnopH5Z4mhXu-32" value="" style="edgeStyle=none;strokeColor=#FF0000;endArrow=open;endFill=1;rounded=0" edge="1" parent="PSc_-ESnvnopH5Z4mhXu-29" target="PSc_-ESnvnopH5Z4mhXu-30">
          <mxGeometry width="100" height="100" relative="1" as="geometry">
            <mxPoint x="-30" y="429.5" as="sourcePoint" />
            <mxPoint x="90" y="429.5" as="targetPoint" />
          </mxGeometry>
        </mxCell>
        <mxCell id="PSc_-ESnvnopH5Z4mhXu-33" value="" style="ellipse;shape=endState;fillColor=#000000;strokeColor=#ff0000" vertex="1" parent="PSc_-ESnvnopH5Z4mhXu-29">
          <mxGeometry x="130" y="500" width="30" height="30" as="geometry" />
        </mxCell>
        <mxCell id="PSc_-ESnvnopH5Z4mhXu-34" value="" style="endArrow=open;strokeColor=#FF0000;endFill=1;rounded=0" edge="1" parent="PSc_-ESnvnopH5Z4mhXu-29" source="PSc_-ESnvnopH5Z4mhXu-30" target="PSc_-ESnvnopH5Z4mhXu-33">
          <mxGeometry relative="1" as="geometry" />
        </mxCell>
        <mxCell id="PSc_-ESnvnopH5Z4mhXu-35" value="" style="endArrow=open;strokeColor=#FF0000;endFill=1;rounded=0" edge="1" parent="1" source="PSc_-ESnvnopH5Z4mhXu-7" target="PSc_-ESnvnopH5Z4mhXu-16">
          <mxGeometry relative="1" as="geometry" />
        </mxCell>
      </root>
    </mxGraphModel>
  </diagram>
</mxfile>
